<svg xmlns="http://www.w3.org/2000/svg" width="516" height="467" viewBox="0 0 516 467">
<path d="M 142 265 141 266 136 266 135 267 133 267 132 268 130 268 129 269 127 269 125 271 123 271 121 273 120 273 119 274 118 274 116 276 115 276 106 285 106 286 104 288 104 289 102 291 102 292 101 293 101 294 100 295 100 296 99 297 99 298 98 299 98 300 97 301 97 304 96 305 96 308 95 309 95 331 96 332 96 334 97 335 97 338 98 339 98 340 99 341 99 343 100 344 100 345 102 347 102 349 104 351 104 352 108 356 108 357 109 358 110 358 111 359 111 360 112 360 113 361 113 362 114 362 115 363 115 364 117 366 117 367 119 369 119 370 120 371 120 373 121 374 121 378 122 379 122 384 123 385 123 386 125 388 126 388 127 389 128 389 129 390 129 400 130 401 130 404 131 405 131 406 135 410 135 411 136 411 139 414 140 414 141 415 158 415 159 414 160 414 163 411 164 411 164 410 168 406 168 405 169 404 169 401 170 400 170 390 171 389 172 389 173 388 174 388 176 386 176 385 177 384 177 380 178 379 178 374 179 373 179 372 180 371 180 369 182 367 182 366 186 362 186 361 187 360 188 360 191 357 191 356 195 352 195 351 197 349 197 347 199 345 199 344 200 343 200 341 201 340 201 339 202 338 202 335 203 334 203 332 204 331 204 309 203 308 203 305 202 304 202 301 200 299 200 297 199 296 199 295 198 294 198 293 197 292 197 291 195 289 195 288 193 286 193 285 188 280 187 280 186 279 186 278 185 278 182 275 181 275 179 273 178 273 176 271 174 271 173 270 172 270 171 269 170 269 169 268 167 268 166 267 164 267 163 266 158 266 157 265 Z" fill="none" stroke="#FFBC5E" stroke-width="6"/>
<path d="M 170 133 169 134 164 134 163 135 161 135 160 136 159 136 158 137 156 137 155 138 154 138 153 139 152 139 151 140 150 140 149 141 148 141 145 144 144 144 134 154 134 155 132 157 132 158 130 160 130 161 128 163 128 165 127 166 127 167 126 168 126 170 125 171 125 172 124 173 124 177 123 178 123 181 122 182 122 198 123 199 123 202 124 203 124 207 125 208 125 209 126 210 126 212 127 213 127 214 128 215 128 217 130 219 130 220 132 222 132 223 134 225 134 226 144 236 145 236 148 239 149 239 150 240 151 240 152 241 153 241 155 243 158 243 159 244 160 244 161 245 163 245 164 246 169 246 170 247 351 247 352 248 359 248 360 249 362 249 363 250 365 250 366 251 367 251 368 252 369 252 371 254 372 254 374 256 375 256 381 262 381 263 384 266 384 267 386 269 386 270 387 271 387 272 388 273 388 275 389 276 389 277 390 278 390 282 391 283 391 289 392 290 392 291 391 292 391 297 390 298 390 303 389 304 389 305 388 306 388 308 386 310 386 311 385 312 385 313 383 315 383 316 379 320 379 321 378 322 377 322 377 323 376 324 375 324 373 326 372 326 370 328 369 328 367 330 365 330 364 331 363 331 362 332 359 332 358 333 351 333 350 334 223 334 222 335 221 335 218 338 218 343 222 347 361 347 362 346 364 346 365 345 368 345 369 344 370 344 371 343 372 343 373 342 374 342 375 341 376 341 377 340 378 340 380 338 381 338 383 336 384 336 391 329 391 328 392 327 393 327 393 326 395 324 395 323 397 321 397 320 398 319 398 318 399 317 399 316 400 315 400 314 401 313 401 312 402 311 402 308 403 307 403 306 404 305 404 299 405 298 405 282 404 281 404 276 403 275 403 273 402 272 402 270 401 269 401 268 400 267 400 265 399 264 399 263 397 261 397 260 395 258 395 257 393 255 393 254 384 245 383 245 380 242 379 242 377 240 376 240 375 239 374 239 373 238 371 238 370 237 369 237 368 236 365 236 364 235 363 235 362 234 357 234 356 233 171 233 170 232 167 232 166 231 164 231 163 230 162 230 161 229 159 229 157 227 156 227 154 225 153 225 145 217 145 216 142 213 142 211 140 209 140 207 139 206 139 205 138 204 138 201 137 200 137 198 136 197 136 183 137 182 137 180 138 179 138 176 139 175 139 174 140 173 140 171 141 170 141 169 142 168 142 167 145 164 145 163 153 155 154 155 156 153 157 153 159 151 161 151 162 150 163 150 164 149 166 149 167 148 170 148 171 147 221 147 222 146 223 146 226 143 226 136 224 134 223 134 222 133 Z" fill="none" stroke="#FFBC5E" stroke-width="6"/>
<path d="M 259 64 258 65 257 65 255 67 255 68 254 69 254 74 255 75 255 76 256 77 256 79 257 80 257 81 258 82 258 84 259 85 259 86 260 87 260 89 261 90 261 91 262 92 262 94 263 95 263 96 264 97 264 99 265 100 265 101 266 102 266 103 267 104 267 106 268 107 268 108 269 109 269 111 270 112 270 113 271 114 271 117 269 119 268 119 266 121 265 121 264 122 263 122 262 123 261 123 259 125 258 125 257 126 256 126 254 128 253 128 252 129 251 129 250 130 249 130 247 132 246 132 245 133 244 133 241 136 241 137 240 138 240 142 241 143 241 144 243 146 244 146 245 147 246 147 248 149 249 149 250 150 251 150 252 151 253 151 255 153 256 153 258 155 259 155 260 156 261 156 262 157 263 157 265 159 266 159 267 160 268 160 271 163 271 165 270 166 270 167 269 168 269 170 268 171 268 172 267 173 267 175 266 176 266 177 265 178 265 180 264 181 264 182 263 183 263 185 262 186 262 188 261 189 261 190 260 191 260 193 259 194 259 195 258 196 258 198 257 199 257 200 256 201 256 203 255 204 255 205 254 206 254 211 256 213 256 214 257 215 265 215 266 214 267 214 268 213 270 213 271 212 273 212 275 210 278 210 279 209 280 209 281 208 283 208 284 207 285 207 286 206 288 206 289 205 291 205 292 204 294 204 295 203 296 203 297 202 299 202 300 201 301 201 302 200 303 200 304 199 307 199 308 198 309 198 310 197 312 197 313 196 314 196 315 195 317 195 318 194 319 194 320 193 322 193 323 192 324 192 325 191 327 191 328 190 330 190 331 189 332 189 333 188 335 188 336 187 337 187 338 186 340 186 341 185 342 185 343 184 346 184 347 183 348 183 349 182 351 182 352 181 353 181 354 180 356 180 357 179 358 179 359 178 360 178 361 177 364 177 365 176 366 176 367 175 369 175 370 174 371 174 372 173 374 173 375 172 376 172 377 171 380 171 381 170 382 170 383 169 384 169 385 168 387 168 388 167 389 167 390 166 392 166 393 165 394 165 395 164 398 164 399 163 400 163 401 162 403 162 404 161 405 161 406 160 408 160 409 159 410 159 411 158 413 158 414 157 416 157 418 155 421 155 422 154 423 154 424 153 426 153 427 152 428 152 429 151 431 151 432 150 434 150 435 149 437 149 438 148 439 148 440 147 442 147 443 146 444 146 444 145 445 144 446 144 446 136 444 134 443 134 442 133 441 133 440 132 438 132 437 131 436 131 435 130 433 130 432 129 431 129 430 128 427 128 426 127 425 127 424 126 422 126 421 125 420 125 419 124 418 124 417 123 415 123 414 122 413 122 412 121 409 121 408 120 407 120 406 119 404 119 403 118 402 118 401 117 399 117 398 116 397 116 396 115 394 115 393 114 392 114 391 113 389 113 388 112 386 112 385 111 384 111 383 110 381 110 380 109 379 109 378 108 376 108 375 107 374 107 373 106 370 106 369 105 368 105 367 104 365 104 364 103 363 103 362 102 360 102 359 101 358 101 357 100 356 100 355 99 352 99 351 98 350 98 349 97 347 97 346 96 345 96 344 95 342 95 341 94 340 94 339 93 336 93 335 92 334 92 333 91 332 91 331 90 329 90 328 89 327 89 326 88 324 88 323 87 322 87 321 86 318 86 316 84 313 84 312 83 311 83 310 82 308 82 307 81 306 81 305 80 303 80 302 79 300 79 299 78 298 78 297 77 295 77 294 76 293 76 292 75 290 75 289 74 288 74 287 73 284 73 283 72 282 72 281 71 279 71 278 70 277 70 276 69 275 69 274 68 272 68 271 67 270 67 269 66 266 66 265 65 264 65 263 64 Z" fill="none" stroke="#FFBC5E" stroke-width="6"/>
</svg>