<svg xmlns="http://www.w3.org/2000/svg" xmlns:xlink="http://www.w3.org/1999/xlink" version="1.1" x="0px" y="0px" viewBox="-3.2 -6.4 70.4 86.4" style="enable-background:new 0 0 64 64;" xml:space="preserve">
  <path d="M38,18H26c-0.6,0-1,0.4-1,1v12c0,0.6,0.4,1,1,1h12c0.6,0,1-0.4,1-1V19C39,18.4,38.6,18,38,18z M37,30H27V20h10V30z" fill="yellow"/>
  <path d="M21,36h22V14H21V36z M23,16h18v18H23V16z" fill="yellow"/>
  <rect x="23" y="10" width="2" height="2" stroke="yellow"/>
  <rect x="27" y="10" width="2" height="2" stroke="yellow"/>
  <rect x="35" y="10" width="2" height="2" stroke="yellow"/>
  <rect x="39" y="10" width="2" height="2" stroke="yellow"/>
  <rect x="23" y="38" width="2" height="2" stroke="yellow"/>
  <rect x="27" y="38" width="2" height="2" stroke="yellow"/>
  <rect x="35" y="38" width="2" height="2" stroke="yellow"/>
  <rect x="39" y="38" width="2" height="2" stroke="yellow"/>
  <rect x="17" y="16" width="2" height="2" stroke="yellow"/>
  <rect x="17" y="20" width="2" height="2" stroke="yellow"/>
  <rect x="17" y="24" width="2" height="2" stroke="yellow"/>
  <rect x="17" y="28" width="2" height="2" stroke="yellow"/>
  <rect x="17" y="32" width="2" height="2" stroke="yellow"/>
  <rect x="45" y="16" width="2" height="2" stroke="yellow"/>
  <rect x="45" y="20" width="2" height="2" stroke="yellow"/>
  <rect x="45" y="24" width="2" height="2" stroke="yellow"/>
  <rect x="45" y="28" width="2" height="2" stroke="yellow"/>
  <rect x="45" y="32" width="2" height="2" stroke="yellow"/>
  <path d="M58,47c-0.5,0-0.9,0.1-1.3,0.2L50,40.6v-0.8c3.8-1,6.6-4.8,6.6-9.6c0-2.1-0.6-4.1-1.8-5.9c1.2-1.7,1.8-3.8,1.8-5.9 c0-5-3.2-8.9-7.7-9.4C48.5,4,44.7,0,40.1,0c-3.5,0.1-6.7,2.2-8.1,5.5c-1.3-3.2-4.4-5.4-7.9-5.5c-4.7,0-8.7,4.1-9.1,9.1 c-4.3,0.5-7.4,4.3-7.4,9.4c0,2.1,0.6,4.2,1.8,5.9c-1.2,1.7-1.8,3.8-1.8,5.9c0,4.8,2.6,8.5,6.3,9.5v0.9l-6.7,6.7 c-2.1-0.7-4.4,0.4-5.1,2.4c-0.7,2.1,0.4,4.4,2.4,5.1s4.4-0.4,5.1-2.4C9.9,51.9,10,51.5,10,51c0-1-0.4-1.9-1-2.6l6.4-6.4 c0.7,2.2,2,4,3.8,5.4L18,48.6v5.6c-2.1,0.6-3.4,2.7-2.9,4.9c0.6,2.1,2.7,3.4,4.9,2.9s3.4-2.7,2.9-4.9c-0.4-1.4-1.5-2.5-2.9-2.9v-4.7 l1.1-1.1c1,0.4,2,0.6,3.1,0.6c2.7,0,5.3-1.4,6.8-3.7v10.8c-2.1,0.6-3.4,2.7-2.9,4.9c0.6,2.1,2.7,3.4,4.9,2.9 c2.1-0.6,3.4-2.7,2.9-4.9c-0.4-1.4-1.5-2.5-2.9-2.9v-11c1.6,2.4,4.3,3.8,7.1,3.9c0.9,0,1.9-0.2,2.8-0.5l2.1,2.1v3.7 c-2.1,0.8-3.1,3.2-2.3,5.2s3.2,3.1,5.2,2.3s3.1-3.2,2.3-5.2c-0.5-1.4-1.8-2.3-3.2-2.5v-4.3l-2.2-2.2c1.9-1.3,3.2-3.3,3.8-5.5 l6.4,6.4c-1.4,1.7-1.2,4.2,0.4,5.6s4.2,1.2,5.6-0.4s1.2-4.2-0.4-5.6C59.9,47.3,59,47,58,47z" fill="yellow"/>
</svg>
